<mxfile host="Electron" modified="2023-05-17T11:58:17.455Z" agent="Mozilla/5.0 (Macintosh; Intel Mac OS X 10_14_6) AppleWebKit/537.36 (KHTML, like Gecko) draw.io/21.2.8 Chrome/112.0.5615.165 Electron/24.2.0 Safari/537.36" etag="G29F-lRyeDWTWrIw4qf3" version="21.2.8" type="device">
  <diagram name="Страница 1" id="06V_jh7bCZvMsuH0hDfv">
    <mxGraphModel dx="914" dy="682" grid="1" gridSize="10" guides="1" tooltips="1" connect="1" arrows="1" fold="1" page="1" pageScale="1" pageWidth="827" pageHeight="1169" math="0" shadow="0">
      <root>
        <mxCell id="0" />
        <mxCell id="1" parent="0" />
        <mxCell id="aY3NzPJRBstMlYidiIHI-1" value="&lt;font style=&quot;font-size: 20px;&quot;&gt;Sales&lt;/font&gt;" style="strokeWidth=2;html=1;shape=mxgraph.flowchart.database;whiteSpace=wrap;spacingBottom=-10;fillColor=#54FF47;" parent="1" vertex="1">
          <mxGeometry x="99.41" y="170" width="80" height="80" as="geometry" />
        </mxCell>
        <mxCell id="aY3NzPJRBstMlYidiIHI-2" value="&lt;span style=&quot;font-family: Helvetica; font-style: normal; font-variant-ligatures: normal; font-variant-caps: normal; font-weight: 400; letter-spacing: normal; orphans: 2; text-align: center; text-indent: 0px; text-transform: none; widows: 2; word-spacing: 0px; -webkit-text-stroke-width: 0px; text-decoration-thickness: initial; text-decoration-style: initial; text-decoration-color: initial; float: none; font-size: 14px; display: inline !important;&quot;&gt;Google&lt;br style=&quot;font-size: 14px;&quot;&gt;Analytics&lt;br style=&quot;font-size: 14px;&quot;&gt;&lt;/span&gt;" style="strokeWidth=2;html=1;shape=mxgraph.flowchart.database;whiteSpace=wrap;verticalAlign=middle;spacing=0;spacingBottom=-15;fontSize=14;fillColor=#FFFF33;fontColor=#000000;labelBackgroundColor=#FFF952;" parent="1" vertex="1">
          <mxGeometry x="99.41" y="280" width="80" height="80" as="geometry" />
        </mxCell>
        <mxCell id="aY3NzPJRBstMlYidiIHI-3" value="&lt;font style=&quot;font-size: 20px;&quot;&gt;Stock&lt;/font&gt;" style="strokeWidth=2;html=1;shape=mxgraph.flowchart.database;whiteSpace=wrap;spacingBottom=-11;fillColor=#CC00CC;" parent="1" vertex="1">
          <mxGeometry x="99.41" y="390" width="80" height="80" as="geometry" />
        </mxCell>
        <mxCell id="aY3NzPJRBstMlYidiIHI-4" value="&lt;font style=&quot;font-size: 20px;&quot;&gt;CRM&lt;/font&gt;" style="strokeWidth=2;html=1;shape=mxgraph.flowchart.database;whiteSpace=wrap;spacingBottom=-14;fillColor=#007FFF;" parent="1" vertex="1">
          <mxGeometry x="99.41" y="500" width="80" height="80" as="geometry" />
        </mxCell>
        <mxCell id="aY3NzPJRBstMlYidiIHI-5" value="&lt;font style=&quot;font-size: 20px;&quot;&gt;Data Warehouse&lt;/font&gt;" style="strokeWidth=2;html=1;shape=mxgraph.flowchart.database;whiteSpace=wrap;spacingBottom=-26;fillColor=#CDA2BE;" parent="1" vertex="1">
          <mxGeometry x="309.41" y="248.47000000000003" width="160" height="220" as="geometry" />
        </mxCell>
        <mxCell id="aY3NzPJRBstMlYidiIHI-6" value="" style="image;aspect=fixed;html=1;points=[];align=center;fontSize=12;image=img/lib/azure2/databases/Azure_SQL.svg;" parent="1" vertex="1">
          <mxGeometry x="589.41" y="100" width="87.65" height="63" as="geometry" />
        </mxCell>
        <mxCell id="aY3NzPJRBstMlYidiIHI-7" value="" style="sketch=0;pointerEvents=1;shadow=0;dashed=0;html=1;strokeColor=none;fillColor=#505050;labelPosition=center;verticalLabelPosition=bottom;verticalAlign=top;outlineConnect=0;align=center;shape=mxgraph.office.services.excel_services;" parent="1" vertex="1">
          <mxGeometry x="589.41" y="207" width="91.17" height="74.5" as="geometry" />
        </mxCell>
        <mxCell id="aY3NzPJRBstMlYidiIHI-8" value="" style="sketch=0;outlineConnect=0;fontColor=#232F3E;gradientColor=none;fillColor=#3F8624;strokeColor=none;dashed=0;verticalLabelPosition=bottom;verticalAlign=top;align=center;html=1;fontSize=12;fontStyle=0;aspect=fixed;pointerEvents=1;shape=mxgraph.aws4.intelligent_tiering;" parent="1" vertex="1">
          <mxGeometry x="597.5" y="323.5" width="75" height="78" as="geometry" />
        </mxCell>
        <mxCell id="aY3NzPJRBstMlYidiIHI-9" value="" style="image;aspect=fixed;html=1;points=[];align=center;fontSize=12;image=img/lib/azure2/general/Table.svg;" parent="1" vertex="1">
          <mxGeometry x="594.38" y="450" width="81.23" height="66" as="geometry" />
        </mxCell>
        <mxCell id="aY3NzPJRBstMlYidiIHI-10" value="" style="image;aspect=fixed;html=1;points=[];align=center;fontSize=12;image=img/lib/azure2/ai_machine_learning/Azure_Experimentation_Studio.svg;" parent="1" vertex="1">
          <mxGeometry x="597.5" y="548.5" width="83.09" height="68.43" as="geometry" />
        </mxCell>
        <mxCell id="aY3NzPJRBstMlYidiIHI-11" value="Source Layer" style="text;strokeColor=none;align=center;fillColor=none;html=1;verticalAlign=middle;whiteSpace=wrap;rounded=0;fontSize=22;" parent="1" vertex="1">
          <mxGeometry x="25" y="30" width="230" height="90" as="geometry" />
        </mxCell>
        <mxCell id="aY3NzPJRBstMlYidiIHI-12" value="Storage Layer" style="text;strokeColor=none;align=center;fillColor=none;html=1;verticalAlign=middle;whiteSpace=wrap;rounded=0;fontSize=22;" parent="1" vertex="1">
          <mxGeometry x="275" y="30" width="230" height="90" as="geometry" />
        </mxCell>
        <mxCell id="aY3NzPJRBstMlYidiIHI-13" value="Business Layer" style="text;strokeColor=none;align=center;fillColor=none;html=1;verticalAlign=middle;whiteSpace=wrap;rounded=0;fontSize=22;" parent="1" vertex="1">
          <mxGeometry x="524.64" y="30" width="230" height="90" as="geometry" />
        </mxCell>
        <mxCell id="aY3NzPJRBstMlYidiIHI-14" value="&lt;span style=&quot;font-size: 15px;&quot;&gt;SQL&lt;/span&gt;" style="text;strokeColor=none;align=center;fillColor=none;html=1;verticalAlign=middle;whiteSpace=wrap;rounded=0;" parent="1" vertex="1">
          <mxGeometry x="603.24" y="170" width="60" height="30" as="geometry" />
        </mxCell>
        <mxCell id="aY3NzPJRBstMlYidiIHI-15" value="&lt;span style=&quot;font-size: 15px;&quot;&gt;Excel&lt;/span&gt;" style="text;strokeColor=none;align=center;fillColor=none;html=1;verticalAlign=middle;whiteSpace=wrap;rounded=0;" parent="1" vertex="1">
          <mxGeometry x="597.5" y="281.5" width="60" height="30" as="geometry" />
        </mxCell>
        <mxCell id="aY3NzPJRBstMlYidiIHI-19" value="&lt;span style=&quot;font-size: 15px;&quot;&gt;Business Intelligence&lt;/span&gt;" style="text;strokeColor=none;align=center;fillColor=none;html=1;verticalAlign=middle;whiteSpace=wrap;rounded=0;" parent="1" vertex="1">
          <mxGeometry x="605" y="410" width="60" height="30" as="geometry" />
        </mxCell>
        <mxCell id="aY3NzPJRBstMlYidiIHI-20" value="&lt;span style=&quot;font-size: 15px;&quot;&gt;Tableau&lt;/span&gt;" style="text;strokeColor=none;align=center;fillColor=none;html=1;verticalAlign=middle;whiteSpace=wrap;rounded=0;" parent="1" vertex="1">
          <mxGeometry x="603.23" y="516" width="60" height="30" as="geometry" />
        </mxCell>
        <mxCell id="aY3NzPJRBstMlYidiIHI-21" value="&lt;span style=&quot;font-size: 15px;&quot;&gt;Data Science&lt;/span&gt;" style="text;strokeColor=none;align=center;fillColor=none;html=1;verticalAlign=middle;whiteSpace=wrap;rounded=0;" parent="1" vertex="1">
          <mxGeometry x="603.23" y="620" width="60" height="30" as="geometry" />
        </mxCell>
        <mxCell id="aY3NzPJRBstMlYidiIHI-22" value="" style="edgeStyle=none;orthogonalLoop=1;jettySize=auto;html=1;rounded=0;" parent="1" edge="1">
          <mxGeometry width="80" relative="1" as="geometry">
            <mxPoint x="219.41" y="369.5" as="sourcePoint" />
            <mxPoint x="299.41" y="369.5" as="targetPoint" />
            <Array as="points" />
          </mxGeometry>
        </mxCell>
        <mxCell id="aY3NzPJRBstMlYidiIHI-23" value="" style="edgeStyle=none;orthogonalLoop=1;jettySize=auto;html=1;rounded=0;" parent="1" edge="1">
          <mxGeometry width="80" relative="1" as="geometry">
            <mxPoint x="179.41" y="218.53000000000003" as="sourcePoint" />
            <mxPoint x="219.41" y="218.53" as="targetPoint" />
            <Array as="points" />
          </mxGeometry>
        </mxCell>
        <mxCell id="aY3NzPJRBstMlYidiIHI-24" value="" style="edgeStyle=none;orthogonalLoop=1;jettySize=auto;html=1;rounded=0;" parent="1" edge="1">
          <mxGeometry width="80" relative="1" as="geometry">
            <mxPoint x="219.41" y="221.53" as="sourcePoint" />
            <mxPoint x="219.41" y="371.53" as="targetPoint" />
            <Array as="points" />
          </mxGeometry>
        </mxCell>
        <mxCell id="aY3NzPJRBstMlYidiIHI-25" value="" style="edgeStyle=none;orthogonalLoop=1;jettySize=auto;html=1;rounded=0;" parent="1" edge="1">
          <mxGeometry width="80" relative="1" as="geometry">
            <mxPoint x="179.41" y="542.03" as="sourcePoint" />
            <mxPoint x="219.41" y="542.03" as="targetPoint" />
            <Array as="points" />
          </mxGeometry>
        </mxCell>
        <mxCell id="aY3NzPJRBstMlYidiIHI-26" value="" style="edgeStyle=none;orthogonalLoop=1;jettySize=auto;html=1;rounded=0;" parent="1" edge="1">
          <mxGeometry width="80" relative="1" as="geometry">
            <mxPoint x="219.41" y="541.53" as="sourcePoint" />
            <mxPoint x="219.41" y="371.53" as="targetPoint" />
            <Array as="points" />
          </mxGeometry>
        </mxCell>
        <mxCell id="aY3NzPJRBstMlYidiIHI-27" value="" style="edgeStyle=none;orthogonalLoop=1;jettySize=auto;html=1;rounded=0;" parent="1" edge="1">
          <mxGeometry width="80" relative="1" as="geometry">
            <mxPoint x="179.41" y="323.03" as="sourcePoint" />
            <mxPoint x="219.41" y="323.03" as="targetPoint" />
            <Array as="points" />
          </mxGeometry>
        </mxCell>
        <mxCell id="aY3NzPJRBstMlYidiIHI-28" value="" style="edgeStyle=none;orthogonalLoop=1;jettySize=auto;html=1;rounded=0;" parent="1" edge="1">
          <mxGeometry width="80" relative="1" as="geometry">
            <mxPoint x="179.41" y="436.03" as="sourcePoint" />
            <mxPoint x="219.41" y="436.03" as="targetPoint" />
            <Array as="points" />
          </mxGeometry>
        </mxCell>
        <mxCell id="aY3NzPJRBstMlYidiIHI-29" value="&lt;span style=&quot;font-size: 14px;&quot;&gt;ETL/ELT&lt;br&gt;&lt;/span&gt;" style="text;strokeColor=none;align=center;fillColor=none;html=1;verticalAlign=middle;whiteSpace=wrap;rounded=0;" parent="1" vertex="1">
          <mxGeometry x="229.41" y="341.53" width="60" height="30" as="geometry" />
        </mxCell>
        <mxCell id="aY3NzPJRBstMlYidiIHI-30" value="" style="edgeStyle=none;orthogonalLoop=1;jettySize=auto;html=1;rounded=0;exitX=-0.034;exitY=0.635;exitDx=0;exitDy=0;exitPerimeter=0;" parent="1" source="aY3NzPJRBstMlYidiIHI-6" edge="1">
          <mxGeometry width="80" relative="1" as="geometry">
            <mxPoint x="579.41" y="120" as="sourcePoint" />
            <mxPoint x="549.41" y="140" as="targetPoint" />
            <Array as="points" />
          </mxGeometry>
        </mxCell>
        <mxCell id="aY3NzPJRBstMlYidiIHI-31" value="" style="edgeStyle=none;orthogonalLoop=1;jettySize=auto;html=1;rounded=0;exitX=-0.034;exitY=0.635;exitDx=0;exitDy=0;exitPerimeter=0;" parent="1" edge="1">
          <mxGeometry width="80" relative="1" as="geometry">
            <mxPoint x="589.41" y="248.47000000000003" as="sourcePoint" />
            <mxPoint x="549.41" y="248" as="targetPoint" />
            <Array as="points">
              <mxPoint x="572.41" y="248.47000000000003" />
            </Array>
          </mxGeometry>
        </mxCell>
        <mxCell id="aY3NzPJRBstMlYidiIHI-32" value="" style="edgeStyle=none;orthogonalLoop=1;jettySize=auto;html=1;rounded=0;exitX=-0.034;exitY=0.635;exitDx=0;exitDy=0;exitPerimeter=0;entryX=1.013;entryY=0.552;entryDx=0;entryDy=0;entryPerimeter=0;" parent="1" target="aY3NzPJRBstMlYidiIHI-5" edge="1">
          <mxGeometry width="80" relative="1" as="geometry">
            <mxPoint x="589.41" y="370.47" as="sourcePoint" />
            <mxPoint x="549.41" y="370" as="targetPoint" />
            <Array as="points">
              <mxPoint x="572.41" y="370.47" />
            </Array>
          </mxGeometry>
        </mxCell>
        <mxCell id="aY3NzPJRBstMlYidiIHI-33" value="" style="edgeStyle=none;orthogonalLoop=1;jettySize=auto;html=1;rounded=0;exitX=-0.034;exitY=0.635;exitDx=0;exitDy=0;exitPerimeter=0;" parent="1" edge="1">
          <mxGeometry width="80" relative="1" as="geometry">
            <mxPoint x="589.41" y="482.97" as="sourcePoint" />
            <mxPoint x="549.41" y="482.5" as="targetPoint" />
            <Array as="points">
              <mxPoint x="572.41" y="482.97" />
            </Array>
          </mxGeometry>
        </mxCell>
        <mxCell id="aY3NzPJRBstMlYidiIHI-34" value="" style="edgeStyle=none;orthogonalLoop=1;jettySize=auto;html=1;rounded=0;exitX=-0.034;exitY=0.635;exitDx=0;exitDy=0;exitPerimeter=0;" parent="1" edge="1">
          <mxGeometry width="80" relative="1" as="geometry">
            <mxPoint x="589.41" y="600.47" as="sourcePoint" />
            <mxPoint x="549.41" y="600" as="targetPoint" />
            <Array as="points">
              <mxPoint x="572.41" y="600.47" />
            </Array>
          </mxGeometry>
        </mxCell>
        <mxCell id="aY3NzPJRBstMlYidiIHI-35" value="" style="edgeStyle=none;orthogonalLoop=1;jettySize=auto;html=1;rounded=0;" parent="1" edge="1">
          <mxGeometry width="80" relative="1" as="geometry">
            <mxPoint x="549.41" y="140" as="sourcePoint" />
            <mxPoint x="549.41" y="370" as="targetPoint" />
            <Array as="points">
              <mxPoint x="549.41" y="140.47000000000003" />
            </Array>
          </mxGeometry>
        </mxCell>
        <mxCell id="aY3NzPJRBstMlYidiIHI-36" value="" style="edgeStyle=none;orthogonalLoop=1;jettySize=auto;html=1;rounded=0;exitX=-0.034;exitY=0.635;exitDx=0;exitDy=0;exitPerimeter=0;" parent="1" edge="1">
          <mxGeometry width="80" relative="1" as="geometry">
            <mxPoint x="559.41" y="598.23" as="sourcePoint" />
            <mxPoint x="549.41" y="367.76" as="targetPoint" />
            <Array as="points">
              <mxPoint x="549.41" y="597.76" />
            </Array>
          </mxGeometry>
        </mxCell>
      </root>
    </mxGraphModel>
  </diagram>
</mxfile>
